.
..............................Site Info...........................

 -   http://www.scenetime.com  *_*   

SceneTime is going to Close sign up on march/1, hurry up! get in before the doors are closed.

     We care to share . Join us on  http://www.scenetime.com 

    Be the first to get new release at  http://www.scenetime.com

        Seed back for speed


...................................NFO:.................................................








































          
          
              
              
                    
                    
                    
                    
Balls.To.The.Wall.2011.BRRiP.XviD.AC3-SiC

Poster:
[img]http://img864.imageshack.us/img864/8484/ballstothewallbr.png[/img]

IMDB Link: 
http://www.imdb.com/title/tt1626135

Description:
An engaged guy is forced by his future father-in-law to take a side job moonlighting as an exotic dancer in order to pay extravagant wedding neither of them can afford.

General:
Complete name                            : Balls.To.The.Wall.2011.BRRiP.XviD.AC3-SiC.avi
Format                                   : AVI
Format/Info                              : Audio Video Interleave
File size                                : 1.50 GiB
Duration                                 : 1h 28mn
Overall bit rate                         : 2 422 Kbps

Video
ID                                       : 0
Format                                   : MPEG-4 Visual
Format profile                           : Advanced Simple@L5
Format settings, BVOP                    : 4
Format settings, QPel                    : No
Format settings, GMC                     : No warppoints
Format settings, Matrix                  : Default (H.263)
Codec ID                                 : XVID
Codec ID/Hint                            : XviD
Duration                                 : 1h 28mn
Bit rate                                 : 2 030 Kbps
Width                                    : 720 pixels
Height                                   : 400 pixels
Display aspect ratio                     : 16:9
Frame rate                               : 23.976 fps
Color space                              : YUV
Chroma subsampling                       : 4:2:0
Bit depth                                : 8 bits
Scan type                                : Progressive
Compression mode                         : Lossy
Bits/(Pixel*Frame)                       : 0.294
Stream size                              : 1.26 GiB (84%)
Writing library                          : XviD 1.2.1 (UTC 2008-12-04)

Audio
ID                                       : 1
Format                                   : AC-3
Format/Info                              : Audio Coding 3
Mode extension                           : CM (complete main)
Codec ID                                 : 2000
Duration                                 : 1h 28mn
Bit rate mode                            : Constant
Bit rate                                 : 384 Kbps
Channel(s)                               : 6 channels
Channel positions                        : Front: L C R, Side: L R, LFE
Sampling rate                            : 48.0 KHz
Bit depth                                : 16 bits
Compression mode                         : Lossy
Stream size                              : 243 MiB (16%)
Alignment                                : Aligned on interleaves
Interleave, duration                     : 64 ms (1.53 video frames)
Interleave, preload duration             : 192 ms
Title                                    : 6ch 5.1

Screenshots:
[IMG]http://img692.imageshack.us/img692/882/vlcsnap2012020113h39m24f.png[/IMG]
[IMG]http://img803.imageshack.us/img803/8412/vlcsnap2012020113h40m00.png[/IMG]
[IMG]http://img192.imageshack.us/img192/5696/vlcsnap2012020113h40m52.png[/IMG]
[IMG]http://img708.imageshack.us/img708/4202/vlcsnap2012020113h40m58.png[/IMG]
[IMG]http://img27.imageshack.us/img27/4320/vlcsnap2012020113h41m32.png[/IMG]

Note:  Audio stripped from source and converted from DTS to 5.1 ac3 384kbps and muxed to our encode.  Video ran a few nice filters, cleaned it up the best i could.  Came together real nice :)

Source:  720p FLHD - MANY THANKS :)

Enjoy!

Respects to T00NG0D, ELEKTRI4KA, PA, YeFsTe, MrRep and everyone in the struggle...